<?xml version="1.0" encoding="UTF-8"?><!DOCTYPE svg PUBLIC "-//W3C//DTD SVG 1.1//EN" "http://www.w3.org/Graphics/SVG/1.1/DTD/svg11.dtd"><svg xmlns="http://www.w3.org/2000/svg"><symbol id="icon--arrow" viewBox="0 0 24 24"><path d="M18.67 11.588L7.252.17a.584.584 0 0 0-.824 0L5.33 1.27a.578.578 0 0 0 0 .822L15.24 12l-9.91 9.908a.58.58 0 0 0 0 .822l1.098 1.1a.584.584 0 0 0 .824 0L18.67 12.41a.584.584 0 0 0 0-.824z"/></symbol><symbol id="icon--arrow_mask" viewBox="0 0 108 20"><path d="M53.723 19.29S27.383 0 0 0h53.723v19.29zm0 0S80.063 0 107.446 0H53.723v19.29z"/></symbol><symbol id="icon--blog" viewBox="0 0 24 24"><path d="M2 17.777V22h4.221L18.444 9.666l-4.22-4.222zM21.667 6.442a1.075 1.075 0 0 0 0-1.557L19.11 2.33a1.084 1.084 0 0 0-1.557 0l-1.996 2.002 4.222 4.222z"/></symbol><symbol id="icon--close" viewBox="0 0 24 24"><path d="M12 13.39l10.61 10.586L24 22.588 13.39 12 24 1.412 22.61.024 12 10.612 1.39.024 0 1.412 10.61 12 0 22.588l1.39 1.388"/></symbol><symbol id="icon--download" viewBox="0 0 24 24"><path d="M21.882 8.47h-5.647V0h-8.47v8.47H2.118L12 18.353zM2.118 21.175V24h19.764v-2.825z"/></symbol><symbol id="icon--envelop" viewBox="0 0 24 24"><path d="M24 8.652v10.635a2.06 2.06 0 0 1-.63 1.512c-.42.42-.925.63-1.513.63H2.144A2.06 2.06 0 0 1 .63 20.8 2.068 2.068 0 0 1 0 19.287V8.653A7.099 7.099 0 0 0 1.354 9.82c3.232 2.196 5.45 3.737 6.655 4.62.509.375.921.668 1.238.878.316.21.739.424 1.267.643.53.219 1.02.328 1.473.328h.027c.455 0 .945-.11 1.472-.328.526-.22.948-.433 1.266-.643.317-.21.73-.502 1.24-.878 1.518-1.098 3.74-2.638 6.669-4.62A7.368 7.368 0 0 0 24 8.652zm0-3.937c0 .705-.22 1.38-.657 2.022a6.351 6.351 0 0 1-1.635 1.647c-3.356 2.33-5.445 3.78-6.266 4.353-.09.062-.28.199-.57.409-.29.21-.531.38-.723.51a12.96 12.96 0 0 1-.698.435 4.114 4.114 0 0 1-.77.36c-.24.08-.463.12-.669.121h-.027a2.14 2.14 0 0 1-.669-.12 4 4 0 0 1-.77-.363 14.915 14.915 0 0 1-.696-.435 23.932 23.932 0 0 1-.723-.51 26.017 26.017 0 0 0-.57-.407 636.41 636.41 0 0 0-3.508-2.445 715.895 715.895 0 0 1-2.745-1.908C1.75 8.009 1.228 7.493.737 6.837.245 6.18 0 5.57 0 5.008c0-.696.185-1.276.555-1.74.37-.463.9-.696 1.588-.697h19.711c.582 0 1.084.21 1.508.63.424.42.636.924.636 1.512z"/></symbol><symbol id="icon--exit" viewBox="0 0 24 24"><path d="M17.515 21.583H1.162V2.417h16.353a.58.58 0 0 0 0-1.162H.58a.58.58 0 0 0-.58.58v20.33c0 .32.26.58.58.58h16.935a.58.58 0 0 0 0-1.162z"/><path d="M23.83 11.232L20.25 7.65a.582.582 0 0 0-.823 0 .579.579 0 0 0 0 .82l2.59 2.592H11.164a.58.58 0 0 0 0 1.16h10.853l-2.59 2.59a.581.581 0 1 0 .822.822l3.58-3.58a.581.581 0 0 0 0-.822z"/></symbol><symbol id="icon--facebook" viewBox="0 0 24 24"><path d="M10.358 1.58C11.162.8 12.308.536 13.386.503 14.526.494 15.668.5 16.81.5c.004 1.226.005 2.453 0 3.68h-2.214c-.467-.03-.947.33-1.032.802-.012.82-.005 1.64-.004 2.46 1.083.005 2.164 0 3.245.004a45.92 45.92 0 0 1-.392 3.544c-.955.01-1.912 0-2.868.006-.008 3.5.005 7-.006 10.5-1.42.006-2.843-.003-4.26.004-.03-3.5 0-7.003-.016-10.504-.693-.007-1.386.005-2.078-.006.002-1.177 0-2.354 0-3.53.692-.01 1.383.002 2.077-.005.02-1.144-.02-2.29.02-3.432.07-.906.41-1.818 1.074-2.443z"/></symbol><symbol id="icon--hamburger-menu" viewBox="0 0 24 24"><path d="M0 4.54h24v1.946H0zm0 6.487h24v1.946H0zm0 6.487h24v1.945H0z"/></symbol><symbol id="icon--hammer" viewBox="0 0 24 24"><path d="M12 .5C9.294.5 8.053 1.741 7.146 2.646A.499.499 0 0 0 7.5 3.5c4.033 0 4.5 1.712 4.5 3 0 1.07-.606 1.885-.993 2.3l3.267 3.267c.884-.598 2.14-1.304 2.726-1.252v.685c0 .133.053.26.146.354l2.5 2.5A.504.504 0 0 0 20 14.5h.017a.493.493 0 0 0 .359-.17l3.5-4a.501.501 0 0 0-.022-.684l-2-2A.5.5 0 0 0 21.5 7.5H21V7a.503.503 0 0 0-.146-.354l-4-4C16.052 1.844 14.708.5 12 .5zm-1.707 9L.756 19.037C.269 19.524 0 20.172 0 20.92a2.582 2.582 0 0 0 4.489 1.736l9.028-9.931z"/></symbol><symbol id="icon--index" viewBox="0 0 24 24"><path d="M3.624 19.205v-3.052a.753.753 0 0 1 1.505 0v2.967h13.74V4.88H6.96a.753.753 0 0 1 .001-1.505h11.995c.784 0 1.42.636 1.42 1.42v14.41a1.42 1.42 0 0 1-1.42 1.42H5.045a1.42 1.42 0 0 1-1.42-1.42zm0-6.4c0-.415.338-.752.753-.752h.05a.753.753 0 0 1 .002 1.505h-.05a.754.754 0 0 1-.754-.753zm2.717.478v-.956a.19.19 0 0 1 .19-.188h10.146c.103 0 .188.084.188.187v.956a.188.188 0 0 1-.188.188H6.53a.188.188 0 0 1-.19-.187zm-2.716-4.72c0-.415.338-.753.753-.753h.05a.753.753 0 1 1 .002 1.506h-.05a.754.754 0 0 1-.754-.753zm2.717.478v-.954a.19.19 0 0 1 .19-.19h10.146a.19.19 0 0 1 .188.19v.955a.19.19 0 0 1-.188.19H6.53a.19.19 0 0 1-.19-.19zM3.625 4.128c0-.414.338-.752.753-.752h.05a.754.754 0 0 1 .002 1.506h-.05a.754.754 0 0 1-.754-.753z"/></symbol><symbol id="icon--instagram" viewBox="0 0 24 24"><path d="M23.326 4.142c.296.76.499 1.631.554 2.91.065 1.279.074 1.686.074 4.948 0 3.262-.019 3.67-.074 4.948-.055 1.27-.258 2.15-.554 2.91a5.863 5.863 0 0 1-1.375 2.122 5.836 5.836 0 0 1-2.114 1.38c-.757.297-1.625.501-2.899.557-1.273.064-1.68.074-4.929.074-3.249 0-3.655-.019-4.929-.074-1.265-.056-2.142-.26-2.898-.556a5.836 5.836 0 0 1-2.114-1.381 5.863 5.863 0 0 1-1.376-2.122c-.295-.76-.498-1.631-.554-2.91C.074 15.67.065 15.262.065 12c0-3.262.018-3.67.073-4.948.056-1.27.259-2.15.554-2.91A5.863 5.863 0 0 1 2.068 2.02 5.836 5.836 0 0 1 4.182.64C4.938.342 5.806.138 7.08.082 8.354.02 8.76.01 12.01.01c3.248 0 3.655.019 4.928.074 1.265.056 2.142.26 2.899.556.785.306 1.45.714 2.114 1.381a5.863 5.863 0 0 1 1.375 2.122zM21.73 16.846c.056-1.26.074-1.65.074-4.846 0-3.197-.018-3.577-.074-4.846-.055-1.168-.249-1.798-.415-2.224a3.755 3.755 0 0 0-.896-1.381 3.698 3.698 0 0 0-1.375-.899c-.415-.167-1.052-.361-2.215-.417-1.256-.065-1.643-.074-4.828-.074-3.185 0-3.563.019-4.828.074-1.163.056-1.79.25-2.215.417-.563.223-.96.482-1.375.899a3.715 3.715 0 0 0-.896 1.38c-.166.418-.36 1.057-.415 2.225-.065 1.26-.074 1.65-.074 4.846 0 3.197.018 3.577.074 4.846.055 1.168.249 1.798.415 2.224.222.566.48.964.896 1.381.415.417.821.686 1.375.899.415.167 1.052.361 2.215.417 1.256.065 1.634.074 4.828.074 3.194 0 3.563-.019 4.828-.074 1.163-.056 1.79-.25 2.215-.417.563-.223.96-.482 1.375-.899a3.71 3.71 0 0 0 .896-1.38c.166-.418.36-1.057.415-2.225zM12 5.838c3.388 0 6.138 2.761 6.138 6.162 0 3.4-2.75 6.162-6.138 6.162S5.862 15.401 5.862 12c0-3.4 2.75-6.162 6.138-6.162zm0 10.165c2.197 0 3.988-1.798 3.988-4.003A3.99 3.99 0 0 0 12 7.997c-2.206 0-3.988 1.798-3.988 4.003A3.996 3.996 0 0 0 12 16.003zm6.378-8.97c-.79 0-1.43-.643-1.43-1.436 0-.793.64-1.436 1.43-1.436.79 0 1.431.643 1.431 1.436 0 .793-.64 1.436-1.43 1.436z"/></symbol><symbol id="icon--linkedin" viewBox="0 0 24 24"><path d="M1.504 21V6.81H6.69V21zm7.18 0V6.494h5.19v1.53c.952-1.02 2.203-1.53 3.75-1.53 1.637 0 2.893.533 3.78 1.6.885 1.067 1.326 2.58 1.326 4.542V21h-5.19v-7.73c.003-1.728-.605-2.593-1.818-2.593-.77 0-1.34.412-1.705 1.24-.098.23-.143.575-.143 1.037V21zM2.036 4.53c-.51-.5-.766-1.133-.766-1.904 0-.748.26-1.377.78-1.873C2.57.253 3.25 0 4.097 0c.848 0 1.532.245 2.052.74.516.49.778 1.116.778 1.885 0 .77-.262 1.404-.778 1.905-.52.502-1.204.75-2.05.75H4.07c-.845 0-1.522-.248-2.033-.75z"/></symbol><symbol id="icon--location" viewBox="0 0 24 24"><path d="M12.086 1.757c-2.492 0-4.07 1.662-4.515 3.743-.43 2.01.203 3.93 1.17 5.83H4.38L0 22.244h24L19.618 11.33H15.49c.944-1.9 1.54-3.83 1.11-5.83-.445-2.08-2.02-3.743-4.514-3.743zm.002 2.962c.92 0 1.67.747 1.67 1.664 0 .92-.75 1.67-1.67 1.67a1.668 1.668 0 0 1 0-3.335zM5.87 13.615h4.15c.738 1.243 1.493 2.488 2.066 3.752.617-1.253 1.393-2.5 2.136-3.752h3.907l2.324 6.344H3.548z"/></symbol><symbol id="icon--lock" viewBox="0 0 24 24"><path d="M19.33 10.344V7.33C19.33 3.288 16.043 0 12 0S4.67 3.288 4.67 7.33v2.985c-.456.174-.907.567-.907 1.344v4.104C3.763 20.305 7.458 24 12 24s8.237-3.695 8.237-8.237v-4.104c0-.738-.44-1.128-.906-1.315zm-5.764 8.818a.202.202 0 0 1-.206.248h-2.69a.202.202 0 0 1-.206-.248l.431-2.282a1.639 1.639 0 1 1 2.234-.025zm3.237-8.964H7.197V7.33A4.808 4.808 0 0 1 12 2.528a4.808 4.808 0 0 1 4.803 4.803z"/></symbol><symbol id="icon--logo-small" viewBox="0 0 315.944 197.415"><path d="M0 197.407h39.478L39.48 78.96H.01zM256.72 78.95l-16.9.02V0h-39.48l.005 78.97H171.62l-.006-59.23h-39.476v59.23l-19.756-.042c-32.708 0-59.227 26.57-59.227 59.276 0 32.717 26.514 59.21 59.222 59.21 32.713 0 59.265-26.488 59.265-59.193l-.022-19.77h28.727l.026 59.215h39.477l-.027-59.215 16.9-.02c10.902 0 19.745 8.833 19.745 19.736l-.022 59.24h39.476l.022-59.245c-.002-32.712-26.513-59.21-59.223-59.21zm-144.295 79.01l-.048-.02c-10.904 0-19.744-8.836-19.744-19.74l.022-.05c0-10.902 8.835-19.702 19.74-19.702l19.743.002.026 19.77c0 10.904-8.836 19.74-19.74 19.74z"/></symbol><symbol id="icon--logo" viewBox="0 0 798.991 197.415"><path d="M0 197.407h39.478L39.48 78.96H.01zM256.72 78.95l-16.9.02V0h-39.48l.005 78.97H171.62l-.006-59.23h-39.476v59.23l-19.756-.042c-32.708 0-59.227 26.57-59.227 59.276 0 32.717 26.514 59.21 59.222 59.21 32.713 0 59.265-26.488 59.265-59.193l-.022-19.77h28.727l.026 59.215h39.477l-.027-59.215 16.9-.02c10.902 0 19.745 8.833 19.745 19.736l-.022 59.24h39.476l.022-59.245c-.002-32.712-26.513-59.21-59.223-59.21zm-144.295 79.01l-.048-.02c-10.904 0-19.744-8.836-19.744-19.74l.022-.05c0-10.902 8.835-19.702 19.74-19.702l19.743.002.026 19.77c0 10.904-8.836 19.74-19.74 19.74zm379.795-38.813c-2.157 0-4.355-.37-6.6-1.102-2.21-.742-4.352-1.903-6.383-3.483l3.68-5.584a19.875 19.875 0 0 0 4.91 2.635c1.643.61 3.18.896 4.61.896 1.247 0 2.167-.197 2.74-.61.594-.424.88-.973.88-1.567v-.102c0-.46-.158-.86-.502-1.206-.333-.333-.806-.614-1.388-.868-.583-.24-1.257-.48-2.007-.714a58.566 58.566 0 0 1-2.382-.732 31.355 31.355 0 0 1-3.2-1.1c-1.054-.438-2.01-1-2.87-1.697a8.163 8.163 0 0 1-2.12-2.58c-.552-1.02-.815-2.256-.815-3.738v-.104c0-1.56.28-2.92.874-4.115a9.212 9.212 0 0 1 2.374-3.026 9.916 9.916 0 0 1 3.468-1.87c1.35-.41 2.783-.546 4.33-.546 1.927 0 3.878.237 5.828.857 1.97.622 3.795 1.48 5.458 2.58l-3.28 5.94c-1.523-.86-2.95-1.55-4.384-2.067-1.43-.5-2.69-.764-3.794-.764-1.058 0-1.844.205-2.37.594-.54.4-.807.892-.807 1.502v.116c0 .425.173.788.52 1.11.342.31.79.622 1.352.897.57.285 1.227.56 1.96.823.732.26 1.526.524 2.35.79 1.053.347 2.134.744 3.19 1.215a13.39 13.39 0 0 1 2.933 1.735 8.542 8.542 0 0 1 2.16 2.484c.558.985.84 2.18.84 3.565v.114c0 1.614-.295 3.084-.88 4.307a8.024 8.024 0 0 1-2.463 3.03c-1.054.804-2.29 1.387-3.658 1.788-1.414.4-2.937.597-4.553.597zm27.547 0c-3.252 0-5.795-1.01-7.585-3.004-1.787-1.995-2.683-4.758-2.683-8.18V88.31h8.6v16.885c0 2.033.446 3.577 1.363 4.6.866 1.043 2.146 1.477 3.8 1.477 1.673 0 2.98-.433 3.94-1.477.966-1.023 1.444-2.567 1.444-4.6V88.31h8.56v30.274h-8.56v-4.347c-.49.645-1.03 1.263-1.604 1.86a11.762 11.762 0 0 1-1.96 1.56 9.995 9.995 0 0 1-2.385 1.086c-.87.264-1.843.404-2.93.404zm35.888 0c-2.103 0-4.302-.37-6.548-1.102-2.248-.742-4.395-1.903-6.392-3.483l3.65-5.584c1.66 1.205 3.3 2.03 4.952 2.635 1.636.61 3.134.896 4.568.896 1.232 0 2.152-.197 2.753-.61.58-.424.865-.973.865-1.567v-.102c0-.46-.167-.86-.5-1.206-.342-.333-.803-.614-1.39-.868a24.23 24.23 0 0 0-2.02-.714 60.821 60.821 0 0 1-2.33-.732 30.703 30.703 0 0 1-3.195-1.1 11.54 11.54 0 0 1-2.91-1.697 8.174 8.174 0 0 1-2.133-2.58c-.543-1.02-.818-2.256-.818-3.738v-.104c0-1.56.29-2.92.87-4.115a9.163 9.163 0 0 1 2.384-3.026c1-.825 2.17-1.457 3.514-1.87 1.34-.41 2.785-.546 4.29-.546 1.927 0 3.873.237 5.858.857 1.97.622 3.81 1.48 5.416 2.58l-3.24 5.94a28.025 28.025 0 0 0-4.412-2.067c-1.444-.5-2.7-.764-3.794-.764-1.014 0-1.804.205-2.33.594-.53.4-.807.892-.807 1.502v.116c0 .425.176.788.52 1.11.34.31.788.622 1.363.897.52.285 1.163.56 1.907.823.733.26 1.512.524 2.35.79 1.054.347 2.135.744 3.224 1.215a13.512 13.512 0 0 1 2.94 1.735c.877.674 1.56 1.508 2.118 2.484.56.985.848 2.18.848 3.565v.114c0 1.614-.297 3.084-.884 4.307a7.575 7.575 0 0 1-2.41 3.03c-1.067.804-2.306 1.387-3.714 1.788-1.42.4-2.937.597-4.563.597zm27.945-.057c-1.316 0-2.51-.14-3.595-.424-1.065-.287-1.995-.782-2.74-1.5-.76-.714-1.36-1.654-1.796-2.8-.44-1.156-.655-2.624-.655-4.32V95.67h-3.63v-7.36h3.63v-7.667h8.556v7.667h7.105v7.36h-7.104v13.012c0 1.973.933 2.875 2.778 2.875 1.516 0 2.895-.38 4.21-1.05v6.83c-.904.527-1.87.952-2.96 1.27-1.103.32-2.35.482-3.798.482zm21.967.057c-1.444 0-2.78-.198-4.05-.597-1.228-.4-2.342-.983-3.268-1.788a8.606 8.606 0 0 1-2.247-2.915c-.55-1.155-.81-2.485-.81-3.906v-.115c0-1.658.297-3.094.897-4.307a8.288 8.288 0 0 1 2.525-2.994c1.065-.79 2.31-1.387 3.797-1.786 1.49-.393 3.153-.6 4.97-.6 1.53 0 2.882.127 4.04.344 1.108.23 2.222.53 3.333.908v-.517c0-1.797-.555-3.188-1.654-4.127-1.086-.942-2.674-1.41-4.83-1.41-1.66 0-3.118.137-4.378.422-1.27.288-2.603.69-3.96 1.22l-2.154-6.572c1.672-.71 3.366-1.307 5.17-1.754 1.824-.458 4.01-.652 6.574-.652 2.35 0 4.375.262 6.047.846 1.687.588 3.075 1.424 4.16 2.52 1.133 1.138 1.96 2.515 2.486 4.162.53 1.642.794 3.478.794 5.516v17.537h-8.32v-3.29a12.23 12.23 0 0 1-3.745 2.798c-1.475.7-3.274 1.06-5.378 1.06zm2.59-5.95c2.055 0 3.667-.492 4.865-1.467 1.215-.9 1.842-2.188 1.842-3.768v-1.526c-.754-.345-1.6-.616-2.518-.824-.886-.208-1.884-.31-2.94-.31-1.844 0-3.296.356-4.355 1.076-1.054.712-1.58 1.755-1.58 3.118v.104c0 1.17.435 1.993 1.304 2.637.864.64 1.998.96 3.383.96zm22.211-35.787h9.018v7.647h-9.018zm.232 10.9h8.555v30.274H630.6zm16.622 0h8.61v4.335c.482-.64 1.03-1.263 1.592-1.85a10.32 10.32 0 0 1 1.935-1.564c.71-.462 1.5-.817 2.373-1.082.866-.2 1.84-.317 2.944-.317 3.292 0 5.77.915 7.57 2.92 1.798 1.998 2.687 4.747 2.687 8.258v19.576h-8.562V101.77c0-2.032-.463-3.566-1.353-4.597-.923-1.033-2.195-1.56-3.855-1.56-1.66 0-2.965.527-3.886 1.56-.967 1.03-1.45 2.565-1.45 4.598v16.814h-8.61V88.31zm43.764 30.837c-1.448 0-2.797-.198-4.062-.597-1.257-.4-2.37-.983-3.312-1.788-.946-.79-1.688-1.768-2.24-2.915-.545-1.155-.8-2.485-.8-3.906v-.115c0-1.658.287-3.094.893-4.307.6-1.205 1.45-2.2 2.51-2.994 1.077-.79 2.37-1.387 3.854-1.786 1.49-.393 3.155-.6 4.91-.6 1.545 0 2.905.127 4.046.344 1.15.23 2.282.53 3.38.908v-.517c0-1.797-.547-3.188-1.648-4.127-1.085-.942-2.713-1.41-4.87-1.41-1.64 0-3.094.137-4.338.422-1.273.288-2.59.69-3.99 1.22l-2.17-6.572a34.262 34.262 0 0 1 5.223-1.754c1.807-.458 3.953-.652 6.523-.652 2.39 0 4.404.262 6.088.846 1.672.588 3.024 1.424 4.122 2.52 1.13 1.138 1.96 2.515 2.485 4.162.53 1.642.795 3.478.795 5.516v17.537h-8.27v-3.29a12.039 12.039 0 0 1-3.81 2.798c-1.46.7-3.252 1.06-5.32 1.06zm2.55-5.95c2.042 0 3.666-.492 4.907-1.467 1.213-.9 1.83-2.188 1.83-3.768v-1.526a12.755 12.755 0 0 0-2.52-.824 13.512 13.512 0 0 0-2.965-.31c-1.85 0-3.268.356-4.32 1.076-1.054.712-1.58 1.755-1.58 3.118v.104c0 1.17.423 1.993 1.292 2.637.87.64 1.967.96 3.355.96zm40.249 5.95c-2.298 0-4.21-.46-5.702-1.363a14.966 14.966 0 0 1-3.714-3.176v3.976h-8.607V77.41h8.606v15.268c1.052-1.446 2.285-2.613 3.773-3.543 1.492-.928 3.38-1.305 5.642-1.305 1.768 0 3.483.25 5.106.938 1.665.678 3.13 1.686 4.418 3.028 1.28 1.33 2.314 2.98 3.092 4.92.767 1.946 1.146 4.18 1.146 6.704v.125c0 2.522-.38 4.76-1.146 6.707-.777 1.855-1.8 3.503-3.06 4.846a12.641 12.641 0 0 1-4.39 3.026 13.38 13.38 0 0 1-5.165 1.023zm-2.21-7.315a7.11 7.11 0 0 0 2.868-.584 6.18 6.18 0 0 0 2.334-1.614c.69-.746 1.193-1.614 1.576-2.635.398-1.02.6-2.183.6-3.452v-.125c0-1.24-.2-2.374-.6-3.42-.383-1.026-.886-1.922-1.576-2.658a7.508 7.508 0 0 0-2.334-1.708 7.11 7.11 0 0 0-2.87-.584 6.953 6.953 0 0 0-2.852.584 7.001 7.001 0 0 0-2.317 1.708c-.638.736-1.148 1.632-1.552 2.66a9.594 9.594 0 0 0-.602 3.418v.125c0 1.235.208 2.386.603 3.416.404 1.045.915 1.925 1.553 2.67a5.836 5.836 0 0 0 2.318 1.615c.88.388 1.838.582 2.854.582zM754.25 77.41h8.565v41.174h-8.566zm30.805 41.84c-2.26 0-4.373-.38-6.312-1.125a14.56 14.56 0 0 1-5.04-3.234 15.377 15.377 0 0 1-3.303-4.87c-.786-1.898-1.185-4.02-1.185-6.37v-.105c0-2.154.363-4.193 1.097-6.122.73-1.927 1.76-3.6 3.084-5.033a14.488 14.488 0 0 1 4.736-3.394c1.823-.836 3.866-1.167 6.072-1.167 2.534 0 4.725.364 6.57 1.27 1.856.905 3.393 2.118 4.62 3.66 1.227 1.525 2.132 3.287 2.72 5.26a21.947 21.947 0 0 1 .754 8.46H777.76c.416 1.975 1.282 3.45 2.57 4.425 1.31.95 2.913 1.442 4.848 1.442 1.433 0 2.705-.25 3.858-.734 1.117-.493 2.29-1.2 3.495-2.302l4.933 4.274a15.484 15.484 0 0 1-5.207 4.175c-2.043.994-4.444 1.49-7.2 1.49zm5.557-18.145c-.28-1.925-.954-3.476-2.035-4.667-1.105-1.195-2.55-1.777-4.373-1.777-1.8 0-3.27.574-4.39 1.756-1.116 1.157-1.838 2.73-2.165 4.688h12.962zm-406.159 77.151c-1.328 0-2.52-.148-3.6-.423a6.517 6.517 0 0 1-2.774-1.5 6.965 6.965 0 0 1-1.808-2.727c-.423-1.143-.633-2.613-.633-4.393V154.84h-3.594v-7.28h3.593v-7.76h8.583v7.76h7.094v7.28h-7.094v13.013c0 1.97.918 2.957 2.766 2.957 1.482 0 2.903-.38 4.212-1.137v6.82c-.897.542-1.905.966-2.992 1.286-1.08.317-2.322.476-3.757.476zm15.14-30.696h8.552v6.03c.872-1.994 2.065-3.646 3.562-4.897 1.49-1.237 3.507-1.81 6.072-1.693v8.915h-.445c-2.867 0-5.117.872-6.724 2.605-1.637 1.737-2.465 4.435-2.465 8.09v11.135h-8.552zm32.447 30.742c-1.435 0-2.787-.193-4.044-.58a9.664 9.664 0 0 1-3.327-1.778c-.915-.72-1.633-1.688-2.186-2.843-.55-1.156-.824-2.486-.824-3.99v-.115c0-1.66.298-3.092.906-4.3.608-1.21 1.41-2.21 2.47-3 1.077-.79 2.36-1.392 3.852-1.79 1.49-.39 3.152-.595 4.962-.595 1.522 0 2.86.116 4.01.343 1.14.23 2.264.525 3.367.904v-.502c0-1.824-.55-3.198-1.655-4.14-1.078-.94-2.71-1.406-4.816-1.406-1.66 0-3.128.137-4.39.418-1.272.275-2.593.688-3.99 1.21l-2.153-6.477a33.916 33.916 0 0 1 5.215-1.755c1.812-.45 4-.686 6.516-.686 2.382 0 4.4.294 6.1.88 1.67.585 3.047 1.423 4.146 2.52a10.04 10.04 0 0 1 2.457 4.082c.53 1.638.782 3.473.782 5.512v17.532h-8.272v-3.2a13.373 13.373 0 0 1-3.795 2.717c-1.477.696-3.223 1.04-5.333 1.04zm2.604-5.85c2 0 3.623-.498 4.846-1.48 1.227-.975 1.85-2.26 1.85-3.843v-1.525a12.896 12.896 0 0 0-2.532-.826 13.403 13.403 0 0 0-2.97-.312c-1.8 0-3.26.355-4.313 1.08-1.054.71-1.582 1.752-1.582 3.105v.116c0 1.18.437 2.073 1.307 2.716.86.642 1.993.965 3.394.965zm35.198 5.85c-1.768 0-3.487-.33-5.16-1.003-1.654-.68-3.127-1.69-4.4-2.95-1.284-1.337-2.277-2.978-3.058-4.93-.775-1.936-1.167-4.184-1.167-6.706v-.112c0-2.525.392-4.772 1.167-6.71.78-1.948 1.754-3.504 3.022-4.847a12.455 12.455 0 0 1 4.39-3.026 13.436 13.436 0 0 1 5.206-1.02c2.25 0 4.155.457 5.653 1.353 1.492.917 2.74 1.97 3.763 3.174v-14.95h8.57v41.17h-8.57v-4.278c-1.065 1.434-2.33 2.53-3.816 3.45-1.49.925-3.374 1.382-5.6 1.382zm2.17-7.206c1.02 0 1.962-.208 2.854-.598a6.769 6.769 0 0 0 2.33-1.708c.654-.732 1.177-1.616 1.584-2.647a9.773 9.773 0 0 0 .596-3.43v-.11c0-1.254-.21-2.4-.596-3.43-.407-1.033-.93-1.927-1.584-2.673a6.646 6.646 0 0 0-2.33-1.682c-.892-.4-1.832-.6-2.854-.6s-1.938.2-2.822.6a7.106 7.106 0 0 0-2.354 1.682 8.669 8.669 0 0 0-1.604 2.64c-.4 1.017-.597 2.176-.597 3.462v.112c0 1.25.195 2.384.597 3.43a8.33 8.33 0 0 0 1.604 2.646 7.23 7.23 0 0 0 2.354 1.708c.883.39 1.8.598 2.822.598zm38.668 7.334c-2.257 0-4.367-.38-6.274-1.13-1.94-.763-3.614-1.818-5.035-3.157a14.817 14.817 0 0 1-3.3-4.95c-.788-1.902-1.203-4.027-1.203-6.375v-.104c0-2.157.38-4.193 1.113-6.12.73-1.926 1.768-3.602 3.082-4.962a14.667 14.667 0 0 1 4.733-3.395c1.788-.824 3.822-1.237 6.037-1.237 2.533 0 4.718.457 6.567 1.353 1.814.917 3.353 2.12 4.58 3.66 1.228 1.44 2.134 3.19 2.716 5.178.587 1.984.874 4.048.874 6.205 0 .343 0 .694-.024 1.073-.014.38-.048.768-.092 1.183H503.43c.413 1.974 1.27 3.448 2.526 4.45 1.31 1.01 2.91 1.5 4.85 1.5 1.432 0 2.705-.24 3.85-.732 1.125-.495 2.274-1.287 3.46-2.384l4.927 4.367c-1.433 1.778-3.176 3.083-5.203 4.07-2 1.003-4.4 1.51-7.16 1.51zm5.563-18.16c-.277-1.913-.957-3.483-2.055-4.664-1.09-1.19-2.54-1.788-4.356-1.788-1.804 0-3.268.6-4.37 1.753-1.092 1.182-1.816 2.742-2.16 4.7h12.94zm30.821-23.694h9.018v7.637h-9.018zm.22 10.985h8.566v30.186h-8.566zm17.56-.001h8.626v4.336a17.52 17.52 0 0 1 1.563-1.848 10.916 10.916 0 0 1 1.96-1.57c.708-.46 1.5-.814 2.357-1.09.876-.262 1.863-.388 2.96-.388 3.276 0 5.768.995 7.573 3.004 1.787 2.007 2.68 4.665 2.68 8.17v19.57h-8.555V160.94c0-2.03-.46-3.565-1.366-4.6-.906-1.032-2.187-1.543-3.854-1.543-1.66 0-2.965.51-3.926 1.544-.926 1.033-1.393 2.57-1.393 4.598v16.807h-8.627V147.56zm36.266-10.984h9.022v7.637h-9.02zm.233 10.985h8.568v30.186h-8.567zm27.801 30.695c-1.316 0-2.52-.148-3.595-.423a6.433 6.433 0 0 1-2.77-1.5c-.782-.724-1.337-1.568-1.77-2.727-.44-1.143-.655-2.613-.655-4.393V154.84h-3.62v-7.28h3.62v-7.76h8.57v7.76h7.09v7.28h-7.09v13.013c0 1.97.917 2.957 2.772 2.957 1.508 0 2.88-.38 4.2-1.137v6.82a13.13 13.13 0 0 1-2.955 1.286c-1.097.317-2.358.476-3.798.476zm14.323-41.68h9.018v7.637h-9.018zm.227 10.985h8.562v30.186h-8.562zm26.114 30.741a13.68 13.68 0 0 1-4-.58 9.755 9.755 0 0 1-3.313-1.778c-.942-.72-1.685-1.688-2.23-2.843-.555-1.156-.83-2.486-.83-3.99v-.115c0-1.66.312-3.092.914-4.3a8.346 8.346 0 0 1 2.508-3c1.086-.79 2.366-1.392 3.85-1.79 1.497-.39 3.1-.595 4.92-.595 1.54 0 2.9.116 4.042.343 1.16.23 2.282.525 3.367.904v-.502c0-1.824-.55-3.198-1.636-4.14-1.084-.94-2.712-1.406-4.866-1.406-1.668 0-3.084.137-4.345.418-1.27.275-2.6.688-4.003 1.21l-2.14-6.477a33.604 33.604 0 0 1 5.204-1.755c1.808-.45 3.963-.686 6.536-.686 2.378 0 4.396.294 6.08.88 1.632.585 3.032 1.423 4.126 2.52a9.93 9.93 0 0 1 2.478 4.082c.53 1.638.794 3.473.794 5.512v17.532h-8.27v-3.2a13.273 13.273 0 0 1-3.803 2.717c-1.468.696-3.26 1.04-5.382 1.04zm2.61-5.85c2.038 0 3.662-.498 4.903-1.48 1.214-.975 1.836-2.26 1.836-3.843v-1.525c-.746-.347-1.596-.62-2.51-.826-.94-.21-1.915-.312-2.973-.312-1.875 0-3.312.355-4.33 1.08-1.063.71-1.583 1.752-1.583 3.105v.116c0 1.18.443 2.073 1.297 2.716.835.642 1.972.965 3.36.965zm33.374 5.804c-1.276 0-2.48-.148-3.56-.423a6.536 6.536 0 0 1-2.776-1.5 6.866 6.866 0 0 1-1.8-2.727c-.435-1.143-.653-2.613-.653-4.393V154.84h-3.595v-7.28h3.595v-7.76h8.558v7.76h7.147v7.28h-7.146v13.013c0 1.97.93 2.957 2.774 2.957a8.39 8.39 0 0 0 4.245-1.137v6.82c-.907.542-1.908.966-2.993 1.286-1.106.317-2.362.476-3.795.476zm14.512-41.68h9.017v7.637h-9.016zm.218 10.985h8.582v30.186h-8.582zm14.508-.001h9.076l6.803 20.247 6.802-20.246h8.91l-11.91 30.41h-7.776zm49.924 30.87c-2.246 0-4.353-.38-6.3-1.13-1.938-.763-3.626-1.818-4.995-3.157-1.42-1.396-2.522-3.034-3.324-4.95-.79-1.902-1.18-4.027-1.18-6.375v-.104c0-2.157.365-4.193 1.1-6.12.734-1.926 1.764-3.602 3.08-4.962 1.3-1.434 2.856-2.56 4.685-3.395 1.836-.824 3.862-1.237 6.1-1.237 2.483 0 4.67.457 6.53 1.353 1.846.917 3.378 2.12 4.61 3.66 1.226 1.44 2.11 3.19 2.666 5.178.603 1.984.878 4.048.878 6.205 0 .343 0 .694-.024 1.073-.02.38-.044.768-.076 1.183h-21.05c.415 1.974 1.284 3.448 2.58 4.45 1.306 1.01 2.922 1.5 4.837 1.5 1.397 0 2.69-.24 3.827-.732 1.12-.495 2.29-1.287 3.507-2.384l4.916 4.367c-1.433 1.778-3.168 3.083-5.207 4.07-2.023 1.003-4.433 1.51-7.16 1.51zm5.52-18.16c-.26-1.913-.95-3.483-2.044-4.664-1.085-1.19-2.514-1.788-4.31-1.788-1.827 0-3.28.6-4.39 1.753-1.116 1.182-1.85 2.742-2.177 4.7h12.92zM398.326 77.41h8.6v15.234a21.21 21.21 0 0 1 1.592-1.85 11.306 11.306 0 0 1 1.94-1.564 9.46 9.46 0 0 1 2.37-1.083c.875-.2 1.85-.317 2.95-.317 3.28 0 5.782.914 7.57 2.92 1.785 1.997 2.696 4.746 2.696 8.257v19.576h-8.57V101.77c0-2.033-.444-3.567-1.352-4.598-.92-1.033-2.205-1.562-3.853-1.562-1.667 0-2.983.53-3.897 1.562-.96 1.03-1.448 2.565-1.448 4.598v16.813h-8.6V77.41zm-13.866 41.68c-1.317 0-2.508-.14-3.596-.424-1.065-.287-1.99-.782-2.74-1.5-.757-.714-1.357-1.654-1.792-2.8-.44-1.156-.656-2.624-.656-4.32V95.67h-3.63v-7.36h3.63v-7.667h8.556v7.667h7.103v7.36h-7.103v13.012c0 1.973.93 2.875 2.777 2.875 1.516 0 2.895-.38 4.208-1.05v6.83c-.903.527-1.87.952-2.96 1.27-1.102.32-2.35.482-3.8.482zm62.93.16c-2.26 0-4.37-.38-6.31-1.125a14.559 14.559 0 0 1-5.042-3.234 15.325 15.325 0 0 1-3.302-4.87c-.79-1.898-1.19-4.02-1.19-6.37v-.105c0-2.154.368-4.193 1.1-6.122.73-1.927 1.763-3.6 3.087-5.033a14.451 14.451 0 0 1 4.732-3.394c1.823-.836 3.866-1.167 6.076-1.167 2.534 0 4.725.364 6.568 1.27 1.857.905 3.396 2.118 4.62 3.66 1.227 1.525 2.135 3.287 2.72 5.26a21.804 21.804 0 0 1 .847 7.28c-.016.378-.047.767-.095 1.18h-21.103c.413 1.975 1.276 3.45 2.567 4.425 1.307.95 2.914 1.442 4.85 1.442 1.433 0 2.703-.25 3.856-.734a12.728 12.728 0 0 0 3.493-2.302l4.93 4.274a15.4 15.4 0 0 1-5.205 4.175c-2.042.994-4.44 1.49-7.2 1.49zm5.558-18.145c-.278-1.925-.955-3.476-2.038-4.667-1.105-1.195-2.548-1.777-4.37-1.777-1.803 0-3.27.574-4.388 1.756-1.117 1.157-1.84 2.73-2.17 4.688h12.966z"/></symbol><symbol id="icon--map-pin" viewBox="0 0 24 24"><path d="M12 .5C8.15.5 5.03 3.562 5.03 7.338 5.03 11.115 12 23.5 12 23.5s6.97-12.385 6.97-16.162C18.97 3.562 15.848.5 12 .5z"/></symbol><symbol id="icon--news" viewBox="0 0 24 24"><path d="M20.996 4.23V1H0v17.77S0 22 2.999 22h18.748S24 21.949 24 18.77V4.23h-3.004zM3 20.383c-1.497 0-1.497-1.613-1.497-1.613V2.617H19.5V18.77c0 .741.212 1.258.506 1.613H2.999zM3 7.46h14.999V5.847h-15V7.46zm8.25 9.693h5.252v-1.617H11.25v1.617zm0-3.23h6.749v-1.617H11.25v1.617zm0-3.23h6.749V9.078H11.25v1.617zM3 17.154h6.748V9.077H3v8.076z"/></symbol><symbol id="icon--play-round" viewBox="0 0 192 192"><path d="M96 192c-53.02 0-96-42.98-96-96S42.98 0 96 0s96 42.98 96 96-42.98 96-96 96zm-23.326-58.45l64.432-37.321-64.432-36.024v73.345z"/></symbol><symbol id="icon--play" viewBox="0 0 24 24"><path d="M1.125 0l21.75 12-21.75 12"/></symbol><symbol id="icon--podcast" viewBox="0 0 24 24"><path d="M16.876 21.61l.301-2.395c2.577-1.683 4.281-4.579 4.281-7.864 0-5.186-4.248-9.405-9.47-9.405-5.22 0-9.469 4.22-9.469 9.405 0 3.285 1.705 6.181 4.28 7.864l.302 2.396C3.238 19.788.56 15.875.56 11.35.56 5.092 5.687 0 11.989 0c6.301 0 11.428 5.092 11.428 11.351 0 4.524-2.678 8.437-6.541 10.26zM11.989 5.839c-3.061 0-5.551 2.473-5.551 5.513a5.45 5.45 0 0 0 .882 2.977c-.4.675-.648 1.43-.724 2.21a7.408 7.408 0 0 1-2.118-5.187c0-4.113 3.37-7.46 7.51-7.46 4.142 0 7.51 3.347 7.51 7.46a7.408 7.408 0 0 1-2.117 5.187 5.362 5.362 0 0 0-.723-2.21c.557-.86.882-1.88.882-2.977 0-3.04-2.49-5.513-5.551-5.513zm3.432 11.645l-.606 4.812A1.955 1.955 0 0 1 12.871 24h-1.765c-.988 0-1.822-.73-1.944-1.705l-.606-4.812c-.258-2.05 1.352-3.861 3.433-3.861-1.62 0-2.94-1.31-2.94-2.92 0-1.609 1.32-2.918 2.94-2.918 1.62 0 2.938 1.31 2.938 2.919 0 1.61-1.318 2.919-2.938 2.919 2.08 0 3.69 1.81 3.432 3.861z"/></symbol><symbol id="icon--publication" viewBox="0 0 24 24"><path d="M2 0h20v18.333L15.723 24H2V0zm1.065 1.023v21.954H14.94v-4.85c0-.255.22-.51.558-.51h5.379V1.023H3.065zm12.998 21.243l4.035-3.678h-4.036v3.678h.001zM6 4.001h12V6H6V4zm0 3.998h12v2.002H6V8zM6 12h12v2H6v-2z"/></symbol><symbol id="icon--search" viewBox="0 0 24 24"><path d="M23.497 21.3l-6.266-6.265c1.12-1.566 1.79-3.47 1.79-5.483 0-5.258-4.25-9.51-9.51-9.51A9.503 9.503 0 0 0 0 9.552c0 5.26 4.252 9.51 9.51 9.51 2.014 0 3.917-.67 5.483-1.79l6.266 6.266c.558.56 1.565.56 2.237 0 .67-.67.67-1.566 0-2.237zM9.51 16.826a7.258 7.258 0 0 1-7.272-7.272A7.258 7.258 0 0 1 9.51 2.281a7.259 7.259 0 0 1 7.273 7.273 7.258 7.258 0 0 1-7.273 7.272z"/></symbol><symbol id="icon--sector" viewBox="0 0 24 24"><path d="M19.043 2.54a2.565 2.565 0 0 0-.54.005H4.922c-1.5.126-2.692 1.58-2.525 3.07v12.587c.14 1.82 1.66 3.136 3.157 2.948 2.342.072 4.65 1.135 6.46 2.852 1.973-1.983 4.574-2.898 7.133-2.88 1.46-.172 2.61-1.872 2.436-3.587V4.933c-.15-1.29-1.29-2.278-2.54-2.393z"/></symbol><symbol id="icon--soundcloud" viewBox="0 0 24 24"><path d="M1.06 12.282L.823 14.35l.237 2.022a.102.102 0 0 0 .1.093c.05 0 .091-.038.1-.093l.267-2.022-.267-2.068c-.009-.055-.05-.094-.1-.094a.102.102 0 0 0-.1.094zm-.884.788L0 14.35l.176 1.257c.006.053.046.09.096.09.049 0 .088-.037.096-.09l.208-1.257-.208-1.28c-.008-.052-.047-.09-.096-.09-.05 0-.09.038-.096.09zm1.806-1.174l-.224 2.454.224 2.363a.12.12 0 0 0 .12.114.124.124 0 0 0 .12-.113l.255-2.364-.254-2.454a.123.123 0 0 0-.121-.113.12.12 0 0 0-.12.113zm.93-.066L2.7 14.35l.212 2.44a.14.14 0 0 0 .282 0l.24-2.44-.24-2.521a.14.14 0 1 0-.281 0zm1.1.03a.16.16 0 0 0-.162.152l-.2 2.338.2 2.46a.16.16 0 0 0 .322 0l.227-2.46-.227-2.34a.16.16 0 0 0-.16-.15zm.965-1.486a.181.181 0 0 0-.181.173l-.188 3.805.188 2.458a.182.182 0 0 0 .181.172.184.184 0 0 0 .182-.173v.001l.212-2.458-.212-3.806a.184.184 0 0 0-.182-.172zm.757-.684l-.176 4.675.176 2.443a.202.202 0 0 0 .404-.001l.199-2.442-.2-4.675a.202.202 0 0 0-.403 0zm1.199-.615a.22.22 0 0 0-.223.213l-.164 5.065.164 2.417a.22.22 0 0 0 .223.212.22.22 0 0 0 .221-.212v.002l.185-2.42-.185-5.064a.221.221 0 0 0-.221-.213zm.989-.19a.239.239 0 0 0-.243.232l-.152 5.236.152 2.404c.001.127.11.23.243.23a.24.24 0 0 0 .243-.232l.17-2.402-.17-5.236a.24.24 0 0 0-.243-.232zm.996.114a.26.26 0 0 0-.263.252l-.14 5.102.14 2.38a.26.26 0 0 0 .263.252c.144 0 .26-.112.264-.253v.003l.156-2.382-.156-5.102a.261.261 0 0 0-.264-.252zm.72.439l-.126 4.915.127 2.366c.003.15.128.27.283.27a.28.28 0 0 0 .285-.272v.002l.143-2.365-.143-4.917a.279.279 0 0 0-.284-.27.28.28 0 0 0-.284.271zm1.298-1.225a.31.31 0 0 0-.165.047.293.293 0 0 0-.14.244l-.002.055-.113 5.794.115 2.35v.01a.307.307 0 0 0 .517.195.293.293 0 0 0 .092-.205l.013-.233.115-2.117-.128-5.85a.297.297 0 0 0-.137-.241.314.314 0 0 0-.167-.05zm.803-.479a.309.309 0 0 0-.12.24l-.001.032-.133 6.349.068 1.173.066 1.142a.32.32 0 0 0 .324.31c.177 0 .323-.14.326-.312v.002l.143-2.315-.143-6.381a.315.315 0 0 0-.16-.266.328.328 0 0 0-.37.026zm9.31 3.6c-.405 0-.791.079-1.143.22C19.671 9.002 17.44 7 14.72 7c-.646 0-1.287.115-1.89.338-.222.082-.28.168-.283.333v8.99c.002.173.142.308.318.324h8.183c1.631 0 2.952-1.253 2.952-2.818 0-1.564-1.321-2.833-2.952-2.833z"/></symbol><symbol id="icon--tag" viewBox="0 0 24 24"><path d="M11.25 23.414l11.31-11.327c.402-.401.743-.94 1.022-1.616.28-.676.42-1.293.42-1.853v-6.59c0-.55-.2-1.025-.602-1.426A1.949 1.949 0 0 0 21.974 0h-6.59c-.56 0-1.177.14-1.853.42-.676.28-1.21.62-1.6 1.021L.588 12.768a1.94 1.94 0 0 0-.586 1.426c0 .549.195 1.03.586 1.442l7.794 7.778c.391.39.866.586 1.426.586.549 0 1.03-.195 1.442-.586zM17.5 6.503a1.954 1.954 0 0 1-.595-1.434c0-.56.198-1.037.594-1.434a1.953 1.953 0 0 1 1.434-.594c.56 0 1.037.198 1.433.594.396.397.595.874.595 1.434 0 .56-.199 1.038-.595 1.434a1.954 1.954 0 0 1-1.433.594c-.56 0-1.038-.198-1.434-.594z"/></symbol><symbol id="icon--time" viewBox="0 0 24 24"><path d="M12 0C5.38 0 0 5.377 0 12s5.38 12 12 12c6.623 0 12-5.376 12-12S18.623 0 12 0zm0 2.536c5.227 0 9.467 4.24 9.467 9.467 0 5.22-4.24 9.46-9.467 9.46-5.224 0-9.467-4.24-9.467-9.462 0-5.22 4.243-9.463 9.467-9.463zm0 .676a1.35 1.35 0 0 0-1.35 1.35c0 .098.01 7.058.03 7.15-.02.095-.028.188-.028.288a1.349 1.349 0 0 0 2.696.003c0-.1-.008-.196-.027-.288.02-.094.028-7.054.028-7.15a1.35 1.35 0 0 0-1.347-1.353z"/></symbol><symbol id="icon--twitter" viewBox="0 0 24 24"><path d="M1.07 19.56c9.798 3.71 17.808.497 19.636-12.54.9-.594 1.67-1.253 2.28-1.995l-2.5.608 1.667-2.33c-1.053.62-2.11 1.085-3.16.945-2-2.11-7.38-2.053-7.6 4.215-3.98.15-7.14-1.562-9.655-4.77-.86 2.1-.597 4.143 1.33 6.1-.687.365-1.37.237-2.054-.276.372 1.65 1.343 3.193 3.33 4.546-.517.524-1.037.653-1.556.443.783 1.004 1.767 1.984 4.108 2.833-1.437 1.386-3.37 2.143-5.827 2.218z"/></symbol><symbol id="icon--video" viewBox="0 0 24 24"><path d="M24 6.916v10.158c0 .785-.836 1.275-1.504.885l-4.158-2.44v.695c0 2.09-1.666 3.786-3.72 3.786H3.72C1.666 20 0 18.304 0 16.214V7.786C0 5.696 1.666 4 3.72 4h10.902c2.055 0 3.72 1.696 3.72 3.786v.695l4.159-2.44c.663-.4 1.499.095 1.499.875z"/></symbol><symbol id="icon--youtube" viewBox="0 0 24 24"><path d="M12 3.523s-6.24.055-8.16.24c-.534.1-1.735.07-2.647 1.026C.473 5.52.24 7.17.24 7.17S0 9.115 0 11.055v1.89c0 1.943.24 3.885.24 3.885s.233 1.65.953 2.38c.912.957 2.113.926 2.647 1.026 1.92.184 8.16.24 8.16.24s5.043-.006 8.4-.25c.47-.056 1.495-.058 2.407-1.015.72-.728.953-2.382.953-2.382s.24-1.942.24-3.885v-1.886c0-1.943-.24-3.885-.24-3.887 0 0-.233-1.653-.953-2.38-.912-.958-1.937-.962-2.407-1.02-3.357-.242-8.4-.247-8.4-.247zM9.137 8.447l3.478 1.78 3.477 1.78-3.483 1.772-3.48 1.773L9.132 12l.004-3.553z"/></symbol></svg>